# xmcd CD database file
# Copyright (C) 1996 Ti Kan
#
# Track frame offsets:
#	150
#	10199
#	22757
#	35409
#	49677
#	63639
#	76652
#	86335
#	97347
#	107410
#	121425
#	134542
#	147080
#	160181
#	176085
#	189881
#	203090
#	215289
#	227347
#	240306
#	252210
#	267165
# Disc length: 3738 seconds
#
# Revision: 1
# Processed by: cddbd v1.5.2PL0 Copyright (c) Steve Scherf et al.
# Submitted via: CDCOPY 4.900
#
DISCID=160e9816
DTITLE=The Knightsbridge Strings - The Strings Sing
DYEAR=1900
DGENRE=
TTITLE0=String Of Pearls
TTITLE1=One O'Clock Jump
TTITLE2=Petite Fleur
TTITLE3=I'm Beginning To See The Light
TTITLE4=Mood Indigo
TTITLE5=Intermission Riff
TTITLE6=Skyliner
TTITLE7=Cherokee
TTITLE8=Take The 'A' Train
TTITLE9=Swinging Shepherd Blues
TTITLE10=Lullaby Of Birdland
TTITLE11=Woodchopper's Ball
TTITLE12=Opus One
TTITLE13=Canadian Sunset
TTITLE14=Jumping At The Woodside
TTITLE15="C" Jam Blues
TTITLE16=Cry
TTITLE17=Singing The Blues
TTITLE18=Wheel Of Fortune
TTITLE19=My Prayer
TTITLE20=You're Breaking My Heart
TTITLE21=You Made Me Love You
EXTD=
EXTT0=
EXTT1=
EXTT2=
EXTT3=
EXTT4=
EXTT5=
EXTT6=
EXTT7=
EXTT8=
EXTT9=
EXTT10=
EXTT11=
EXTT12=
EXTT13=
EXTT14=
EXTT15=
EXTT16=
EXTT17=
EXTT18=
EXTT19=
EXTT20=
EXTT21=
PLAYORDER=
